<?xml version="1.0" encoding="UTF-8" standalone="no"?>
<svg
   xmlns:dc="http://purl.org/dc/elements/1.1/"
   xmlns:cc="http://creativecommons.org/ns#"
   xmlns:rdf="http://www.w3.org/1999/02/22-rdf-syntax-ns#"
   xmlns:svg="http://www.w3.org/2000/svg"
   xmlns="http://www.w3.org/2000/svg"
   height="128pt"
   viewBox="0 0 128 128.02082"
   width="128pt"
   version="1.1"
   id="svg923">
  <metadata
     id="metadata929">
    <rdf:RDF>
      <cc:Work
         rdf:about="">
        <dc:format>image/svg+xml</dc:format>
        <dc:type
           rdf:resource="http://purl.org/dc/dcmitype/StillImage" />
        <dc:title></dc:title>
      </cc:Work>
    </rdf:RDF>
  </metadata>
  <defs
     id="defs927" />
  <g
     id="g868"
     transform="matrix(0.25,0,0,0.25,5.0062022,2.155743)">
    <path
       d="m 329.68541,6.5934066 c 17.61138,20.4342754 25.03324,59.5212644 22.33187,79.2815834 -0.12706,0.966749 -0.37289,1.914159 -0.73473,2.822897 -6.38053,17.180493 -70.93441,196.357483 -73.01982,201.757453 L 238.37472,203.4453 307.90044,10.82776 c 1.56337,-4.2592153 5.23978,-7.3942439 9.69786,-8.2615528 4.45533,-0.8645441 9.03772,0.6629126 12.08711,4.0271994 z m 0,0"
       fill="#95a5a5"
       id="path899" />
    <path
       d="m 183.70377,343.78114 c -3.73717,-2.07989 -7.63455,-3.8449 -11.65897,-5.27844 -42.72749,-14.33825 -89.114793,7.90247 -104.687716,50.19629 -7.786464,19.97853 -7.145646,42.26344 1.781572,61.75859 8.927226,19.49516 25.378509,34.54328 45.591814,41.69721 41.14201,13.9184 86.06539,-6.15128 103.14921,-46.08348 0.61595,-1.35068 1.10761,-2.6986 1.59651,-4.04928 l 24.6051,-72.22434 -39.88523,-87.13433 z M 128.2318,461.22992 c -18.15552,-6.57665 -30.56028,-23.43949 -31.430349,-42.72748 -0.870075,-19.288 9.965789,-37.20045 27.455629,-45.38189 17.48432,-8.18146 38.181,-5.02433 52.43086,8.00466 14.24986,13.029 19.24656,33.36108 12.66163,51.50831 -8.99075,24.76807 -36.34694,37.56781 -61.11777,28.5964 z m 0,0"
       fill="#3c94e6"
       id="path901"
       style="fill:#3c94e6;fill-opacity:1" />
    <path
       d="m 138.16996,24.696437 c -16.19717,22.334635 -21.10824,62.219876 -17.24125,81.670833 0.23478,1.01371 0.56347,1.99979 0.98055,2.94721 L 206.12955,293.01585 268.75269,263.71511 160.38581,27.273516 c -1.88101,-4.184638 -5.81981,-7.068311 -10.37734,-7.598638 -4.55476,-0.527566 -9.05152,1.378305 -11.83851,5.021559 z m 0,0"
       fill="#bdc3c7"
       id="path903" />
    <path
       d="m 316.67574,337.09401 c -3.94156,1.88101 -7.69806,4.11833 -11.22807,6.68713 l -40.07031,-87.44094 -62.4077,29.88078 1.2264,2.57984 39.88524,87.13434 32.03249,69.82955 c 0.67672,1.28993 1.16838,2.51631 1.83958,3.80623 20.34313,37.99318 67.1641,52.98329 105.7898,33.86931 40.79675,-19.15817 58.79207,-67.41545 40.5012,-108.60994 -9.05428,-19.45649 -25.58014,-34.43555 -45.83212,-41.53977 -20.24921,-7.10697 -42.50927,-5.73419 -61.73651,3.80347 z m 76.45593,52.64631 c 10.53478,23.87038 0.10496,51.78452 -23.50025,62.89935 -11.12588,5.51875 -24.00572,6.31701 -35.72823,2.218 -11.7225,-4.09901 -21.29607,-12.75555 -26.55517,-24.00296 -10.53479,-23.87038 -0.14087,-51.78728 23.43948,-62.96012 11.14522,-5.4939 24.03335,-6.27835 35.76138,-2.16829 11.72527,4.1073 21.30988,12.76383 26.58279,24.01402 z m 0,0"
       fill="#3c94e6"
       id="path905"
       style="fill:#3c94e6;fill-opacity:1" />
    <path
       d="m 248.28803,282.08055 c -3.38915,-3.38914 -8.8858,-3.38914 -12.27493,-1e-5 -3.38914,3.38914 -3.38914,8.88579 0,12.27494 3.38914,3.38914 8.88303,3.38637 12.27217,-0.003 3.38913,-3.38913 3.3919,-8.88302 0.003,-12.27216 z m 0,0"
       id="path907"
       style="fill:#7f8c8d" />
    <path
       d="m 249.1139,173.80759 30.99117,67.8049 3.37257,7.42738 5.52151,11.90205 c -4.41666,12.15064 -7.85275,21.47561 -9.51003,26.19886 l -10.73643,-23.37596 -2.9472,-6.50482 -0.42812,-0.91979 -2.9472,-6.26177 0.0607,-0.0607 -22.88706,-49.88417 z m 0,0"
       id="path913"
       style="fill:#7f8c8d" />
    <path
       d="m 203.0332,286.28452 1.16286,2.5163 1.47497,3.31457 0.0607,0.0607 0.36737,0.85901 2.75937,6.07395 34.0599,74.1882 -8.65377,25.3426 -4.0493,-8.83883 -35.77518,-78.1132 2.33125,-6.8722 3.37809,-10.00169 z m 0,0"
       fill="#3a61a0"
       id="path917"
       style="fill:#3a61a0;fill-opacity:1" />
    <path
       d="m 373.18905,349.67277 c -16.31593,-5.91925 -34.32782,-4.98842 -49.9477,2.57707 -6.70647,3.23722 -12.8246,7.57102 -18.10304,12.82184 -19.27694,19.17199 -24.67968,48.27385 -13.56208,73.08611 7.04344,15.29671 19.93157,27.12418 35.77794,32.828 16.26898,5.83915 34.20077,4.88897 49.76264,-2.64061 6.76723,-3.24827 12.92956,-7.62626 18.22457,-12.94336 19.21343,-19.13607 24.58577,-48.15784 13.49856,-72.90106 -6.95229,-15.31604 -19.81556,-27.15732 -35.65089,-32.82799 z m 19.94262,40.06755 c 10.53478,23.87038 0.10496,51.78452 -23.50025,62.89935 -11.12588,5.51875 -24.00572,6.31701 -35.72823,2.218 -11.7225,-4.09901 -21.29607,-12.75555 -26.55517,-24.00296 -10.53478,-23.87038 -0.14087,-51.78728 23.43948,-62.96012 11.14522,-5.4939 24.03335,-6.27834 35.76138,-2.16829 11.72526,4.10731 21.30987,12.76384 26.58279,24.01402 z m 0,0"
       fill="#2b66c0"
       id="path919"
       style="fill:#2b66c0;fill-opacity:1;stroke-width:1" />
    <path
       d="m 166.64482,355.19428 c -16.22755,-5.89163 -34.12896,-5.08785 -49.75988,2.23457 -15.63369,7.31966 -27.709747,20.55582 -33.570997,36.79165 -12.222451,33.78921 5.245294,71.08909 39.026217,83.33088 23.77646,8.50737 50.32611,2.58536 68.2358,-15.21937 6.73146,-6.72015 11.88547,-14.85201 15.09507,-23.80685 12.22246,-33.78921 -5.24805,-71.08633 -39.02621,-83.33088 z m 22.70475,77.43924 c -6.57664,18.15552 -23.43948,30.56028 -42.72748,31.43035 -19.28799,0.87007 -37.20044,-9.96579 -45.38189,-27.45564 -8.184207,-17.48708 -5.024325,-38.181 8.00467,-52.43086 13.029,-14.24986 33.35831,-19.24932 51.50831,-12.66163 24.76531,8.988 37.56505,36.34418 28.59639,61.11778 z m 0,0"
       fill="#3a61a0"
       id="path921"
       style="fill:#3a61a0;fill-opacity:1" />
  </g>
</svg>
