<?xml version="1.0" encoding="UTF-8" standalone="no"?>
<svg
   xmlns:dc="http://purl.org/dc/elements/1.1/"
   xmlns:cc="http://creativecommons.org/ns#"
   xmlns:rdf="http://www.w3.org/1999/02/22-rdf-syntax-ns#"
   xmlns:svg="http://www.w3.org/2000/svg"
   xmlns="http://www.w3.org/2000/svg"
   xmlns:sodipodi="http://sodipodi.sourceforge.net/DTD/sodipodi-0.dtd"
   xmlns:inkscape="http://www.inkscape.org/namespaces/inkscape"
   width="100"
   height="100"
   version="1.1"
   id="svg883"
   sodipodi:docname="logo.svg"
   inkscape:version="1.0.2 (e86c870879, 2021-01-15, custom)">
  <metadata
     id="metadata889">
    <rdf:RDF>
      <cc:Work
         rdf:about="">
        <dc:format>image/svg+xml</dc:format>
        <dc:type
           rdf:resource="http://purl.org/dc/dcmitype/StillImage" />
      </cc:Work>
    </rdf:RDF>
  </metadata>
  <defs
     id="defs887" />
  <sodipodi:namedview
     pagecolor="#ffffff"
     bordercolor="#666666"
     borderopacity="1"
     objecttolerance="10"
     gridtolerance="10"
     guidetolerance="10"
     inkscape:pageopacity="0"
     inkscape:pageshadow="2"
     inkscape:window-width="1920"
     inkscape:window-height="1017"
     id="namedview885"
     showgrid="false"
     inkscape:zoom="4.18"
     inkscape:cx="50"
     inkscape:cy="50"
     inkscape:window-x="-8"
     inkscape:window-y="-8"
     inkscape:window-maximized="1"
     inkscape:current-layer="svg883" />
  <circle
     fill="#F9FAFB"
     cx="50"
     cy="50"
     r="50"
     id="circle862"
     style="fill:#F9FAFB" />
  <clipPath
     id="a">
    <circle
fill="#F9FAFB"
       cx="50"
       cy="50"
       r="50"
       id="circle864" />
  </clipPath>
  <g
     fill-rule="evenodd"
     clip-rule="evenodd"
     clip-path="url(#a)"
     id="g881">
    <path
       fill="#3B97D3"
       d="M28.016 74.252v20.66C34.652 98.167 42.111 100 50 100s15.348-1.833 21.984-5.088v-20.66L50.001 32.013 28.016 74.252z"
       id="path867" />
    <path
       opacity=".15"
       d="M40.001 98.998V82.9c-7.061-1.658-11.912-5.016-11.995-8.9l-.005.005v20.899a49.597 49.597 0 0 0 12 4.094z"
       id="path869" />
    <path
       opacity=".15"
       fill="#fff"
       d="M60 98.998V82.9c7.061-1.658 11.912-5.016 11.995-8.9l.005.005v20.899a49.597 49.597 0 0 1-12 4.094z"
       id="path871" />
    <path
       fill="#F0C419"
       d="M71.982 73.894L56.495 44.396A13.92 13.92 0 0 1 50.001 46c-2.352 0-4.564-.586-6.51-1.611L28 73.894h.001c0 5.581 9.85 10.105 22 10.105s22-4.524 22-10.105h-.019z"
       id="path873" />
    <path
       fill="#D4896C"
       d="M50 76c-12.15 0-22-4.925-22-10.999V35c0-6.075 9.85-11 22-11s22 4.925 22 11v30.001C72 71.075 62.15 76 50 76z"
       id="path875" />
    <ellipse
       fill="#DF9173"
       cx="50"
       cy="35"
       rx="22"
       ry="11"
       id="ellipse877" />
    <path
       fill="#F0C419"
       d="M50 86c-12.15 0-22-4.925-22-11V55c0 6.075 9.85 11 22 11s22-4.925 22-11v20c0 6.075-9.85 11-22 11z"
       id="path879" />
  </g>
</svg>
